<?xml version="1.0" encoding="utf-8"?>
<!-- Generator: Adobe Illustrator 17.1.0, SVG Export Plug-In . SVG Version: 6.00 Build 0)  -->
<!DOCTYPE svg PUBLIC "-//W3C//DTD SVG 1.1//EN" "http://www.w3.org/Graphics/SVG/1.1/DTD/svg11.dtd">
<svg version="1.1" id="Camada_1" xmlns="http://www.w3.org/2000/svg" xmlns:xlink="http://www.w3.org/1999/xlink" x="0px" y="0px"
	 viewBox="0 122 300 69" enable-background="new 0 122 300 69" xml:space="preserve">
<g enable-background="new    ">
	<path fill="#003D5E" d="M111.2,143.1c0.2,0,0.6,0,0.8,0.2c0.2,0.2,0.4,0.4,0.4,0.6s0.2,0.4,0.2,0.8c0,0.2,0,0.6-0.2,0.8l-15.2,30
		c-0.4,0.6-0.8,0.8-1.4,0.8h-5.6c-0.8,0-1.2-0.4-1.2-0.8l-6.6-30c0-0.6,0.2-0.8,0.4-1.4c0.4-0.4,0.8-0.8,1.2-0.8h3.4
		c0.2,0,0.6,0.2,0.8,0.4c0.2,0.2,0.4,0.4,0.4,0.6l4.8,22.8c0,0.2,0.2,0.4,0.2,0.4c0.2,0,0.4,0.2,0.4,0c0.2,0,0.4,0,0.6-0.2
		c0.2,0,0.4-0.2,0.4-0.4l11.6-22.8c0.2-0.2,0.4-0.6,0.6-0.6c0-0.2,0.2-0.2,0.6-0.2h3.4v-0.2H111.2z"/>
	<path fill="#003D5E" d="M119.4,174.7c0,0.4-0.2,0.8-0.6,0.8c-0.4,0.4-0.6,0.4-0.8,0.4h-4c-0.4,0-0.8-0.2-1-0.4
		c-0.4-0.4-0.4-0.8-0.4-1l4.4-30.2c0-0.4,0.2-0.8,0.6-0.8c0.4-0.2,0.8-0.4,1-0.4h3.4c0.4,0,0.8,0.2,0.8,0.4c0.2,0.2,0.4,0.6,0.4,1
		L119.4,174.7z M119.4,138.1c-0.4,0-0.8-0.2-0.8-0.4c-0.2-0.4-0.4-0.8-0.2-1l0.8-4.6c0-0.4,0.2-0.8,0.6-1c0.4-0.4,0.8-0.4,1-0.4h2.8
		c0.4,0,0.8,0.2,0.8,0.4c0.2,0.4,0.4,0.8,0.4,1l-0.6,4.4c0,0.4-0.2,0.8-0.6,1c-0.4,0.4-0.8,0.4-1,0.4L119.4,138.1L119.4,138.1z"/>
	<path fill="#003D5E" d="M128,161.9c0-3,0.6-5.6,1.4-8c0.8-2.4,2.2-4.2,3.8-6c1.4-1.6,3.6-3,5.8-4c2.2-0.8,4.4-1,7-1
		c0.8,0,1.6,0,2.4,0.2c0.8,0.2,1.4,0.4,2.4,0.8c0.8,0.4,1.4,0.8,2,1.2c0.8,0.6,1.2,1,1.6,1.6c0.2,0.2,0.2,0.2,0.4,0.2
		c0.2,0,0.4,0,0.4,0c0.2,0,0.2-0.2,0.4-0.2c0.2-0.2,0.2-0.2,0.2-0.4l0.6-1.6c0-0.4,0.2-0.8,0.6-1c0.4-0.4,0.8-0.4,1-0.4h3.2
		c0.4,0,0.8,0.2,0.8,0.4c0.2,0.2,0.4,0.6,0.4,1l-4,30.2c0,0.4-0.2,0.8-0.6,0.8c-0.4,0.4-0.8,0.4-1,0.4h-4.2c-0.4,0-0.8-0.2-1-0.4
		c-0.2-0.2-0.4-0.6-0.4-1l0.2-0.8c0-0.2,0-0.4,0-0.6s-0.2-0.2-0.4-0.2c-0.2,0-0.4,0-0.4,0c-0.2,0-0.4,0.2-0.4,0.2
		c-1,1-2.4,1.6-4,2.2c-1.6,0.6-3,0.8-4.6,0.8c-2.2,0-4.2-0.4-5.8-1.2c-1.6-0.8-3-1.8-4.2-3.2c-1.2-1.4-2-2.8-2.6-4.6
		C128.4,165.9,128,164.1,128,161.9z M135,160.9c0,1.4,0.2,2.6,0.6,4c0.4,1.2,0.8,2.2,1.4,3c0.8,0.8,1.4,1.4,2.4,1.8
		c0.8,0.6,1.8,0.8,3,0.8c1.6,0,3-0.4,4.4-1c1.4-0.8,2.6-1.4,3.8-2.4c1-1.2,1.8-2.4,2.6-4c0.8-1.6,0.8-3,0.8-4.6
		c0-1.4-0.2-2.6-0.6-3.8c-0.4-1.2-0.8-2.2-1.4-3.2c-0.8-0.8-1.6-1.6-2.6-2.2c-1.2-0.6-2.4-0.8-4-0.8c-1.6,0-3.4,0.4-4.4,1
		c-1.2,0.8-2.4,1.6-3.2,2.8c-0.8,1.2-1.4,2.6-1.8,4.2C135.2,157.7,135,159.1,135,160.9z"/>
	<path fill="#003D5E" d="M171.6,174.7c0,0.4-0.2,0.8-0.6,0.8c-0.4,0.2-0.6,0.4-0.8,0.4H166c-0.4,0-0.8-0.2-1-0.4
		c-0.2-0.2-0.4-0.6-0.4-1l6.4-42.4c0-0.4,0.2-0.8,0.6-1s0.8-0.4,1-0.4h3.4c0.4,0,0.8,0.2,0.8,0.4c0.2,0.4,0.4,0.6,0.2,1L171.6,174.7
		z"/>
	<path fill="#003D5E" d="M212.8,159.3c0,0.4-0.2,0.8-0.6,1c-0.4,0.4-0.6,0.4-1,0.4H187c-0.4,0-0.8,0.2-0.8,0.8c0,1.6,0.2,3,0.8,4.2
		c0.6,1,1,2,1.8,2.6c0.8,0.8,1.6,1.2,2.6,1.4c1,0.4,2.2,0.6,3.4,0.6c0.8,0,1.4,0,2-0.2c0.8-0.2,1.4-0.4,2.2-0.8
		c0.8-0.4,1.4-0.8,2.2-1.4c0.8-0.6,1.4-1.2,2-2c0.4-0.4,0.8-0.6,1.2-0.6h4.2c0.4,0,0.6,0,0.8,0.2c0.2,0.2,0.4,0.4,0.4,0.6
		s0.2,0.6,0,0.8c0,0.2-0.2,0.6-0.4,0.8c-0.8,1.4-1.6,2.6-2.8,3.6c-1.2,1.2-2.4,2-3.8,2.8s-2.8,1.4-4.2,1.8c-1.4,0.6-3.2,0.8-4.8,0.8
		c-2.2,0-4.2-0.4-5.8-1.2c-1.6-0.8-3.2-1.6-4.4-3c-1.4-1.4-2.2-2.8-2.8-4.4c-0.8-1.8-1-3.8-1-5.8c0-2.6,0.6-5.2,1.4-7.6
		c0.8-2.4,2.2-4.2,4-6.2c1.8-2,3.8-3.2,6-4.2c2.4-1,5-1.4,7.8-1.4c2.4,0,4.2,0.4,6.2,1.2c1.8,0.8,3.4,2,4.4,3.6
		c1,1.6,2.2,3.2,2.6,5.4C212.8,154.7,213,156.9,212.8,159.3z M205.4,155.7c0.4,0,0.6-0.2,0.8-0.4c0.2-0.2,0.2-0.6,0.2-0.8
		c-0.4-1-0.8-2-1.4-2.6c-0.6-0.8-1.2-1.4-1.8-2c-0.8-0.6-1.4-0.8-2.2-1.2c-1-0.4-1.8-0.4-2.6-0.4c-1,0-2,0.2-3,0.6
		c-1,0.4-1.8,0.8-2.6,1.4s-1.4,1.2-2.4,2c-0.8,0.8-1.4,1.6-2,2.6c-0.2,0.4-0.2,0.6,0,0.8c0.2,0.2,0.4,0.2,0.8,0.2h16.2L205.4,155.7
		L205.4,155.7z"/>
	<path fill="#003D5E" d="M237.2,148.3c0,0.4-0.2,0.8-0.6,0.8c-0.4,0.4-0.8,0.4-1,0.4c-1.4,0-2.6,0.2-4.2,0.4
		c-1.4,0.2-2.4,0.8-3.4,1.2c-1,0.8-1.8,1.4-2.6,2.6c-0.8,1.2-1.2,2.6-1.4,4.2l-2,16.4c0,0.4-0.2,0.8-0.6,0.8
		c-0.4,0.2-0.6,0.4-0.8,0.4h-4.2c-0.4,0-0.8-0.2-1-0.4c-0.2-0.2-0.4-0.6-0.4-1l4.4-30.2c0-0.4,0.2-0.8,0.6-1c0.4-0.4,0.8-0.4,1-0.4
		h3.4c0.4,0,0.8,0.2,0.8,0.4c0.2,0.4,0.4,0.8,0.4,1l-0.2,1.6c0,0.2,0,0.4,0.2,0.4c0,0.2,0.2,0.2,0.4,0.2s0.4,0,0.4,0
		c0.2,0,0.4,0,0.4-0.2c1.4-1.4,2.6-2.4,4.2-3c1.6-0.8,3.2-1.2,4.8-1.2c0.4,0,0.8,0.2,1,0.4c0.6,0.4,0.6,0.8,0.6,1L237.2,148.3z"/>
	<path fill="#003D5E" d="M256.6,147.3c0,0.4-0.2,0.8-0.6,1c-0.4,0.4-0.8,0.6-1,0.6h-3.6c-0.2,0-0.4,0-0.6,0.2s-0.2,0.4-0.2,0.6
		l-3.4,25.6c0,0.4-0.2,0.8-0.6,0.8c-0.4,0.4-0.8,0.4-1,0.4h-4.2c-0.4,0-0.8-0.2-1-0.4c-0.2-0.2-0.4-0.6-0.4-1l4-25.6
		c0-0.2,0-0.4-0.2-0.6c-0.2-0.2-0.2-0.2-0.4-0.2h-2.6c-0.4,0-0.8-0.2-0.8-0.4c-0.2-0.4-0.4-0.8-0.2-1l0.4-2.4c0-0.4,0.2-0.8,0.6-1
		c0.4-0.4,0.8-0.4,1-0.4h2.8c0.2,0,0.4,0,0.6-0.2s0.2-0.4,0.4-0.6l1.4-10.4c0-0.4,0.2-0.8,0.6-1c0.4-0.2,0.8-0.4,1-0.4h3.4
		c0.4,0,0.8,0.2,0.8,0.4c0.2,0.4,0.4,0.6,0.4,1l-1.4,10.4c0,0.2,0,0.4,0.2,0.6s0.4,0.2,0.6,0.2h3.4c0.4,0,0.8,0.2,0.8,0.4
		c0.2,0.2,0.4,0.6,0.4,1L256.6,147.3z"/>
	<path fill="#003D5E" d="M259.2,161.9c0-3,0.6-5.6,1.4-8c0.8-2.4,2.2-4.2,3.8-6c1.4-1.6,3.6-3,5.8-4c2.2-0.8,4.4-1.4,7-1.4
		c0.8,0,1.6,0,2.4,0.2s1.4,0.4,2.4,0.8c0.8,0.4,1.4,0.8,2,1.2c0.8,0.6,1.2,1,1.6,1.6c0.2,0.2,0.2,0.2,0.4,0.2s0.4,0,0.4,0
		c0.2,0,0.2-0.2,0.4-0.2c0.2-0.2,0.2-0.2,0.2-0.4l0.6-1.6c0-0.4,0.2-0.8,0.6-1c0.4-0.4,0.8-0.4,1-0.4h3.2c0.4,0,0.8,0.2,0.8,0.4
		c0.2,0.2,0.4,0.6,0.4,1l-4,30.2c0,0.4-0.2,0.8-0.6,0.8c-0.4,0.4-0.8,0.4-1,0.4h-4.2c-0.4,0-0.8-0.2-1-0.4c-0.2-0.2-0.4-0.6-0.4-1
		l0.2-0.8c0-0.2,0-0.4,0-0.6s-0.2-0.2-0.4-0.2c-0.2,0-0.4,0-0.4,0c-0.2,0-0.4,0.2-0.4,0.2c-1,1-2.4,1.6-4,2.2
		c-1.4,0.6-3,0.8-4.6,0.8c-2.2,0-4.2-0.4-5.8-1.2s-3-1.8-4.2-3.2c-1.2-1.4-2-2.8-2.6-4.6C259.2,165.9,259.2,164.1,259.2,161.9z
		 M265.8,160.9c0,1.4,0.2,2.6,0.6,4c0.4,1.2,0.8,2.2,1.4,3c0.6,0.8,1.4,1.4,2.4,1.8c0.8,0.6,1.8,0.8,3,0.8c1.6,0,3-0.4,4.4-1
		c1.4-0.8,2.6-1.4,3.8-2.4c1-1.2,1.8-2.4,2.4-4c0.8-1.6,0.8-3,0.8-4.6c0-1.4-0.2-2.6-0.6-3.8c-0.4-1.2-0.8-2.2-1.4-3.2
		c-0.8-0.8-1.6-1.6-2.6-2.2c-1.2-0.6-2.4-0.8-4-0.8s-3.4,0.4-4.4,1c-1.2,0.8-2.4,1.6-3.2,2.8c-0.8,1.2-1.4,2.6-1.8,4.2
		C266.2,157.7,265.8,159.1,265.8,160.9z"/>
</g>
<path fill="#FFFFFF" d="M12.8,154.6l4.2,4.2c10-9.8,26.2-9.6,36,0.4l4.2-4.2C45.4,142.8,25.4,142.6,12.8,154.6z"/>
<path fill="#FFFFFF" d="M20.4,162.4l4.2,4.2c2.8-2.6,6.6-4.2,10.6-4.2s7.6,1.6,10.4,4.4l4.2-4.2C41.8,154.4,28.6,154.4,20.4,162.4z"
	/>
<g>
	<path fill="#003D5E" d="M57.1,176.2l2,9.5l15.5-10c-0.7,0.3-1.5,0.5-2.4,0.5H57.1z"/>
	<path fill="#003D5E" d="M75.4,174.8c0.4-0.5,0.6-1.1,0.8-1.7c0-0.2,0.1-0.5,0.1-0.7V137c0-2.2-1.8-4-4-4H6.9c-2.2,0-4,1.8-4,4v35.4
		c0,2.2,1.8,4,4,4h50.2h15.1c0.9,0,1.7-0.3,2.4-0.8C74.9,175.4,75.2,175.2,75.4,174.8z"/>
</g>
<g opacity="0.15">
	<path fill="#003D5E" d="M75.4,174.9c0.4-0.5,0.6-1.1,0.8-1.7c0-0.2,0.1-0.5,0.1-0.7v-29.2v-6.1c0-2.2-1.8-4-4-4L2.9,166.6v5.9
		c0,2.2,1.8,4,4,4h50.2h15.1c0.9,0,1.7-0.3,2.4-0.8C74.9,175.5,75.2,175.2,75.4,174.9z"/>
</g>
<g opacity="0.15">
	<path fill="#003D5E" d="M3.7,174.7c-0.4-0.5-0.6-1.1-0.8-1.7c0-0.2-0.1-0.5-0.1-0.7v-29.2v-6.2c0-2.2,1.8-4,4-4l69.3,33.5v5.9
		c0,2.2-1.8,4-4,4H22H6.9c-0.9,0-1.7-0.3-2.4-0.8C4.2,175.3,3.9,175,3.7,174.7z"/>
</g>
<path fill="#FFFFFF" d="M11.3,153l5.3,5.3c12.8-12.5,33.4-12.2,45.9,0.5l5.3-5.3C52.9,137.9,27.4,137.7,11.3,153z"/>
<path fill="#FFFFFF" d="M21,161.9l5.3,5.3c3.6-3.3,8.4-5.3,13.5-5.3s9.7,2,13.3,5.6l5.3-5.3C48.3,151.7,31.5,151.7,21,161.9z"/>
</svg>
