<?xml version="1.0" encoding="UTF-8" standalone="no"?>
    <!-- Generator: Adobe Illustrator 17.1.0, SVG Export Plug-In . SVG Version: 6.00 Build 0)  -->

    <svg xmlns:dc="http://purl.org/dc/elements/1.1/" xmlns:cc="http://creativecommons.org/ns#" xmlns:rdf="http://www.w3.org/1999/02/22-rdf-syntax-ns#" xmlns:svg="http://www.w3.org/2000/svg" xmlns="http://www.w3.org/2000/svg" xmlns:sodipodi="http://sodipodi.sourceforge.net/DTD/sodipodi-0.dtd" xmlns:inkscape="http://www.inkscape.org/namespaces/inkscape" version="1.1" id="Camada_1" x="0px" y="0px" viewBox="0 0 767.6 145" enable-background="new 0 0 792 612" xml:space="preserve" inkscape:version="0.48.4 r9939" width="100%" height="100%" sodipodi:docname="vialerta_logo.svg">
        <metadata id="metadata3131">
            <rdf:RDF>
                <cc:Work rdf:about="">
                    <dc:format>image/svg+xml</dc:format>
                    <dc:type rdf:resource="http://purl.org/dc/dcmitype/StillImage" />
                </cc:Work>
            </rdf:RDF>
        </metadata>
        <defs id="defs3129" />
        <sodipodi:namedview pagecolor="#003d5e" bordercolor="#666666" borderopacity="1" objecttolerance="10" gridtolerance="10" guidetolerance="10" inkscape:pageopacity="0" inkscape:pageshadow="2" inkscape:window-width="1366" inkscape:window-height="719" id="namedview3127" showgrid="false" fit-margin-top="0" fit-margin-left="0" fit-margin-right="0" fit-margin-bottom="0" inkscape:zoom="0.88071895" inkscape:cx="388.5" inkscape:cy="94.1" inkscape:window-x="0" inkscape:window-y="25" inkscape:window-maximized="1" inkscape:current-layer="Camada_1" />
        <g enable-background="new    " id="g3087" transform="translate(-7.5,-255.1)">
            <path d="m 293.6,287.8 c 0.5,0 1.6,0 2.1,0.5 0.5,0.5 1.1,1.1 1.1,1.6 0,0.5 0.5,1.1 0.5,2.1 0,0.5 0,1.6 -0.5,2.1 l -40.1,79.2 c -1.1,1.6 -2.1,2.1 -3.7,2.1 h -14.8 c -2.1,0 -3.2,-1.1 -3.2,-2.1 l -17.4,-79.2 c 0,-1.6 0.5,-2.1 1.1,-3.7 1.1,-1.1 2.1,-2.1 3.2,-2.1 h 9 c 0.5,0 1.6,0.5 2.1,1.1 0.5,0.5 1.1,1.1 1.1,1.6 l 12.7,60.2 c 0,0.5 0.5,1.1 0.5,1.1 0.5,0 1.1,0.5 1.1,0 0.5,0 1.1,0 1.6,-0.5 0.5,0 1.1,-0.5 1.1,-1.1 l 30.6,-60.2 c 0.5,-0.5 1.1,-1.6 1.6,-1.6 0,-0.5 0.5,-0.5 1.6,-0.5 h 9 v -0.6 z" id="path3089" inkscape:connector-curvature="0" style="fill:#fff" />
            <path d="m 315.2,371.3 c 0,1.1 -0.5,2.1 -1.6,2.1 -1.1,1.1 -1.6,1.1 -2.1,1.1 H 301 c -1.1,0 -2.1,-0.5 -2.6,-1.1 -1.1,-1.1 -1.1,-2.1 -1.1,-2.6 l 11.6,-79.7 c 0,-1.1 0.5,-2.1 1.6,-2.1 1.1,-0.5 2.1,-1.1 2.6,-1.1 h 9 c 1.1,0 2.1,0.5 2.1,1.1 0.5,0.5 1.1,1.6 1.1,2.6 l -10.1,79.7 z m 0,-96.7 c -1.1,0 -2.1,-0.5 -2.1,-1.1 -0.5,-1.1 -1.1,-2.1 -0.5,-2.6 l 2.1,-12.1 c 0,-1.1 0.5,-2.1 1.6,-2.6 1.1,-1.1 2.1,-1.1 2.6,-1.1 h 7.4 c 1.1,0 2.1,0.5 2.1,1.1 0.5,1.1 1.1,2.1 1.1,2.6 l -1.6,11.6 c 0,1.1 -0.5,2.1 -1.6,2.6 -1.1,1.1 -2.1,1.1 -2.6,1.1 l -8.5,0.5 0,0 z" id="path3091" inkscape:connector-curvature="0" style="fill:#fff" />
            <path d="m 337.9,337.5 c 0,-7.9 1.6,-14.8 3.7,-21.1 2.1,-6.3 5.8,-11.1 10,-15.8 3.7,-4.2 9.5,-7.9 15.3,-10.6 5.8,-2.1 11.6,-2.6 18.5,-2.6 2.1,0 4.2,0 6.3,0.5 2.1,0.5 3.7,1.1 6.3,2.1 2.1,1.1 3.7,2.1 5.3,3.2 2.1,1.6 3.2,2.6 4.2,4.2 0.5,0.5 0.5,0.5 1.1,0.5 0.5,0 1.1,0 1.1,0 0.5,0 0.5,-0.5 1.1,-0.5 0.5,-0.5 0.5,-0.5 0.5,-1.1 l 1.6,-4.2 c 0,-1.1 0.5,-2.1 1.6,-2.6 1.1,-1.1 2.1,-1.1 2.6,-1.1 h 8.4 c 1.1,0 2.1,0.5 2.1,1.1 0.5,0.5 1.1,1.6 1.1,2.6 l -10.6,79.7 c 0,1.1 -0.5,2.1 -1.6,2.1 -1.1,1.1 -2.1,1.1 -2.6,1.1 h -11.1 c -1.1,0 -2.1,-0.5 -2.6,-1.1 -0.5,-0.5 -1.1,-1.6 -1.1,-2.6 l 0.5,-2.1 c 0,-0.5 0,-1.1 0,-1.6 0,-0.5 -0.5,-0.5 -1.1,-0.5 -0.5,0 -1.1,0 -1.1,0 -0.5,0 -1.1,0.5 -1.1,0.5 -2.6,2.6 -6.3,4.2 -10.6,5.8 -4.2,1.6 -7.9,2.1 -12.1,2.1 -5.8,0 -11.1,-1.1 -15.3,-3.2 -4.2,-2.1 -7.9,-4.8 -11.1,-8.4 -3.2,-3.7 -5.3,-7.4 -6.9,-12.1 -1.3,-3.8 -2.4,-8.5 -2.4,-14.3 z m 18.5,-2.7 c 0,3.7 0.5,6.9 1.6,10.6 1.1,3.2 2.1,5.8 3.7,7.9 2.1,2.1 3.7,3.7 6.3,4.8 2.1,1.6 4.8,2.1 7.9,2.1 4.2,0 7.9,-1.1 11.6,-2.6 3.7,-2.1 6.9,-3.7 10,-6.3 2.6,-3.2 4.8,-6.3 6.9,-10.6 2.1,-4.2 2.1,-7.9 2.1,-12.1 0,-3.7 -0.5,-6.9 -1.6,-10 -1.1,-3.2 -2.1,-5.8 -3.7,-8.4 -2.1,-2.1 -4.2,-4.2 -6.9,-5.8 -3.2,-1.6 -6.3,-2.1 -10.6,-2.1 -4.2,0 -9,1.1 -11.6,2.6 -3.2,2.1 -6.3,4.2 -8.4,7.4 -2.1,3.2 -3.7,6.9 -4.8,11.1 -2,3 -2.5,6.7 -2.5,11.4 z" id="path3093" inkscape:connector-curvature="0" style="fill:#fff" />
            <path d="m 453,371.3 c 0,1.1 -0.5,2.1 -1.6,2.1 -1.1,0.5 -1.6,1.1 -2.1,1.1 h -11.1 c -1.1,0 -2.1,-0.5 -2.6,-1.1 -0.5,-0.5 -1.1,-1.6 -1.1,-2.6 l 16.9,-111.9 c 0,-1.1 0.5,-2.1 1.6,-2.6 1.1,-0.5 2.1,-1.1 2.6,-1.1 h 9 c 1.1,0 2.1,0.5 2.1,1.1 0.5,1.1 1.1,1.6 0.5,2.6 L 453,371.3 z" id="path3095" inkscape:connector-curvature="0" style="fill:#fff" />
            <path d="m 561.8,330.6 c 0,1.1 -0.5,2.1 -1.6,2.6 -1.1,1.1 -1.6,1.1 -2.6,1.1 h -63.9 c -1.1,0 -2.1,0.5 -2.1,2.1 0,4.2 0.5,7.9 2.1,11.1 1.6,2.6 2.6,5.3 4.8,6.9 2.1,2.1 4.2,3.2 6.9,3.7 2.6,1.1 5.8,1.6 9,1.6 2.1,0 3.7,0 5.3,-0.5 2.1,-0.5 3.7,-1.1 5.8,-2.1 2.1,-1 3.7,-2.1 5.8,-3.7 2.1,-1.6 3.7,-3.2 5.3,-5.3 1.1,-1.1 2.1,-1.6 3.2,-1.6 h 11.1 c 1.1,0 1.6,0 2.1,0.5 0.5,0.5 1.1,1.1 1.1,1.6 0,0.5 0.5,1.6 0,2.1 0,0.5 -0.5,1.6 -1.1,2.1 -2.1,3.7 -4.2,6.9 -7.4,9.5 -3.2,3.2 -6.3,5.3 -10,7.4 -3.7,2.1 -7.4,3.7 -11.1,4.8 -3.7,1.6 -8.4,2.1 -12.7,2.1 -5.8,0 -11.1,-1.1 -15.3,-3.2 -4.2,-2.1 -8.4,-4.2 -11.6,-7.9 -3.7,-3.7 -5.8,-7.4 -7.4,-11.6 -2.1,-4.8 -2.6,-10 -2.6,-15.3 0,-6.9 1.6,-13.7 3.7,-20.1 2.1,-6.3 5.8,-11.1 10.6,-16.4 4.8,-5.3 10,-8.4 15.8,-11.1 6.3,-2.6 13.2,-3.7 20.6,-3.7 6.3,0 11.1,1.1 16.4,3.2 4.8,2.1 9,5.3 11.6,9.5 2.6,4.2 5.8,8.4 6.9,14.3 1.3,4.2 1.8,10 1.3,16.3 z m -19.5,-9.5 c 1.1,0 1.6,-0.5 2.1,-1.1 0.5,-0.5 0.5,-1.6 0.5,-2.1 -1.1,-2.6 -2.1,-5.3 -3.7,-6.9 -1.6,-2.1 -3.2,-3.7 -4.8,-5.3 -2.1,-1.6 -3.7,-2.1 -5.8,-3.2 -2.6,-1.1 -4.8,-1.1 -6.9,-1.1 -2.6,0 -5.3,0.5 -7.9,1.6 -2.6,1.1 -4.8,2.1 -6.9,3.7 -2.1,1.6 -3.7,3.2 -6.3,5.3 -2.1,2.1 -3.7,4.2 -5.3,6.9 -0.5,1.1 -0.5,1.6 0,2.1 0.5,0.5 1.1,0.5 2.1,0.5 h 42.8 v -0.4 z" id="path3097" inkscape:connector-curvature="0" style="fill:#fff" />
            <path d="m 626.2,301.6 c 0,1.1 -0.5,2.1 -1.6,2.1 -1.1,1.1 -2.1,1.1 -2.6,1.1 -3.7,0 -6.9,0.5 -11.1,1.1 -3.7,0.5 -6.3,2.1 -9,3.2 -2.6,2.1 -4.8,3.7 -6.9,6.9 -2.1,3.2 -3.2,6.9 -3.7,11.1 l -5.3,43.3 c 0,1.1 -0.5,2.1 -1.6,2.1 -1.1,0.5 -1.6,1.1 -2.1,1.1 h -11.1 c -1.1,0 -2.1,-0.5 -2.6,-1.1 -0.5,-0.5 -1.1,-1.6 -1.1,-2.6 l 11.6,-79.7 c 0,-1.1 0.5,-2.1 1.6,-2.6 1.1,-1.1 2.1,-1.1 2.6,-1.1 h 9 c 1.1,0 2.1,0.5 2.1,1.1 0.5,1.1 1.1,2.1 1.1,2.6 l -0.5,4.2 c 0,0.5 0,1.1 0.5,1.1 0,0.5 0.5,0.5 1.1,0.5 0.6,0 1.1,0 1.1,0 0.5,0 1.1,0 1.1,-0.5 3.7,-3.7 6.9,-6.3 11.1,-7.9 4.2,-2.1 8.4,-3.2 12.7,-3.2 1.1,0 2.1,0.5 2.6,1.1 1.6,1.1 1.6,2.1 1.6,2.6 l -0.6,13.5 z" id="path3099" inkscape:connector-curvature="0" style="fill:#fff" />
            <path d="m 677.4,298.9 c 0,1.1 -0.5,2.1 -1.6,2.6 -1.1,1.1 -2.1,1.6 -2.6,1.6 h -9.5 c -0.5,0 -1.1,0 -1.6,0.5 -0.5,0.5 -0.5,1.1 -0.5,1.6 l -9,67.6 c 0,1.1 -0.5,2.1 -1.6,2.1 -1.1,1.1 -2.1,1.1 -2.6,1.1 h -11.1 c -1.1,0 -2.1,-0.5 -2.6,-1.1 -0.5,-0.5 -1.1,-1.6 -1.1,-2.6 l 10.6,-67.6 c 0,-0.5 0,-1.1 -0.5,-1.6 -0.5,-0.5 -0.5,-0.5 -1.1,-0.5 h -6.9 c -1.1,0 -2.1,-0.5 -2.1,-1.1 -0.5,-1.1 -1.1,-2.1 -0.5,-2.6 l 1.1,-6.3 c 0,-1.1 0.5,-2.1 1.6,-2.6 1.1,-1.1 2.1,-1.1 2.6,-1.1 h 7.4 c 0.5,0 1.1,0 1.6,-0.5 0.5,-0.5 0.5,-1.1 1.1,-1.6 l 3.7,-27.5 c 0,-1.1 0.5,-2.1 1.6,-2.6 1.1,-0.5 2.1,-1.1 2.6,-1.1 h 9 c 1.1,0 2.1,0.5 2.1,1.1 0.5,1.1 1.1,1.6 1.1,2.6 l -3.7,27.5 c 0,0.5 0,1.1 0.5,1.6 0.5,0.5 1.1,0.5 1.6,0.5 h 9 c 1.1,0 2.1,0.5 2.1,1.1 0.5,0.5 1.1,1.6 1.1,2.6 l -1.8,6.3 z" id="path3101" inkscape:connector-curvature="0" style="fill:#fff" />
            <path d="m 684.3,337.5 c 0,-7.9 1.6,-14.8 3.7,-21.1 2.1,-6.3 5.8,-11.1 10,-15.8 3.7,-4.2 9.5,-7.9 15.3,-10.6 5.8,-2.1 11.6,-3.7 18.5,-3.7 2.1,0 4.2,0 6.3,0.5 2.1,0.5 3.7,1.1 6.3,2.1 2.1,1.1 3.7,2.1 5.3,3.2 2.1,1.6 3.2,2.6 4.2,4.2 0.5,0.5 0.5,0.5 1.1,0.5 0.6,0 1.1,0 1.1,0 0.5,0 0.5,-0.5 1.1,-0.5 0.5,-0.5 0.5,-0.5 0.5,-1.1 l 1.6,-4.2 c 0,-1.1 0.5,-2.1 1.6,-2.6 1.1,-1.1 2.1,-1.1 2.6,-1.1 h 8.4 c 1.1,0 2.1,0.5 2.1,1.1 0.5,0.5 1.1,1.6 1.1,2.6 l -10.6,79.7 c 0,1.1 -0.5,2.1 -1.6,2.1 -1.1,1.1 -2.1,1.1 -2.6,1.1 h -11.1 c -1.1,0 -2.1,-0.5 -2.6,-1.1 -0.5,-0.5 -1.1,-1.6 -1.1,-2.6 l 0.5,-2.1 c 0,-0.5 0,-1.1 0,-1.6 0,-0.5 -0.5,-0.5 -1.1,-0.5 -0.5,0 -1.1,0 -1.1,0 -0.5,0 -1.1,0.5 -1.1,0.5 -2.6,2.6 -6.3,4.2 -10.6,5.8 -3.7,1.6 -7.9,2.1 -12.1,2.1 -5.8,0 -11.1,-1.1 -15.3,-3.2 -4.2,-2.1 -7.9,-4.8 -11.1,-8.4 -3.2,-3.7 -5.3,-7.4 -6.9,-12.1 -2.4,-2.7 -2.4,-7.4 -2.4,-13.2 z m 17.4,-2.7 c 0,3.7 0.5,6.9 1.6,10.6 1.1,3.2 2.1,5.8 3.7,7.9 1.6,2.1 3.7,3.7 6.3,4.8 2.1,1.6 4.8,2.1 7.9,2.1 4.2,0 7.9,-1.1 11.6,-2.6 3.7,-2.1 6.9,-3.7 10,-6.3 2.6,-3.2 4.8,-6.3 6.3,-10.6 2.1,-4.2 2.1,-7.9 2.1,-12.1 0,-3.7 -0.5,-6.9 -1.6,-10 -1.1,-3.2 -2.1,-5.8 -3.7,-8.4 -2.1,-2.1 -4.2,-4.2 -6.9,-5.8 -3.2,-1.6 -6.3,-2.1 -10.6,-2.1 -4.3,0 -9,1.1 -11.6,2.6 -3.2,2.1 -6.3,4.2 -8.4,7.4 -2.1,3.2 -3.7,6.9 -4.8,11.1 -0.8,3 -1.9,6.7 -1.9,11.4 z" id="path3103" inkscape:connector-curvature="0" style="fill:#fff" />
        </g>
        <path d="m 26.3,63.1 11.1,11.1 c 26.4,-25.9 69.2,-25.3 95,1.1 L 143.5,64.2 C 112.4,31.9 59.6,31.4 26.3,63.1 z" id="path3105" inkscape:connector-curvature="0" style="fill:#003d5e" />
        <path d="m 46.4,83.7 11.1,11.1 c 7.4,-6.9 17.4,-11.1 28,-11.1 10.6,0 20.1,4.2 27.5,11.6 L 124.1,84.2 C 102.9,62.5 68.1,62.5 46.4,83.7 z" id="path3107" inkscape:connector-curvature="0" style="fill:#003d5e" />
        <g id="g3109" transform="translate(-7.5,-255.1)">
            <path d="m 150.8,375.1 5.3,25 40.9,-26.4 c -1.8,0.9 -4,1.4 -6.4,1.4 h -39.8 z" id="path3111" inkscape:connector-curvature="0" style="fill:#fff" />
            <path d="m 199.1,371.6 c 1,-1.3 1.7,-2.9 2,-4.6 0.1,-0.6 0.2,-1.2 0.2,-1.8 v -93.4 c 0,-5.9 -4.8,-10.6 -10.6,-10.6 H 18.2 c -5.9,0 -10.6,4.8 -10.6,10.6 v 93.4 c 0,5.9 4.8,10.6 10.6,10.6 h 132.6 39.8 c 2.4,0 4.6,-0.8 6.4,-2.2 0.8,-0.5 1.5,-1.2 2.1,-2 z" id="path3113" inkscape:connector-curvature="0" style="fill:#fff" />
        </g>
        <g id="g3115" style="opacity:0.15" transform="translate(-7.5,-255.1)">
            <path d="m 199.1,371.8 c 1,-1.3 1.7,-2.9 2,-4.6 0.1,-0.6 0.2,-1.2 0.2,-1.8 V 288.2 272 c 0,-5.9 -4.8,-10.6 -10.6,-10.6 l -183,88.5 v 15.6 c 0,5.9 4.8,10.6 10.6,10.6 h 132.6 39.8 c 2.4,0 4.6,-0.8 6.4,-2.2 0.7,-0.6 1.4,-1.3 2,-2.1 z" id="path3117" inkscape:connector-curvature="0" style="fill:#fff" />
        </g>
        <g id="g3119" style="opacity:0.15" transform="translate(-7.5,-255.1)">
            <path d="m 9.7,371.3 c -1,-1.3 -1.7,-2.9 -2,-4.6 -0.1,-0.6 -0.2,-1.2 -0.2,-1.8 v -77.2 -16.3 c 0,-5.9 4.8,-10.6 10.6,-10.6 l 183,88.5 v 15.6 c 0,5.9 -4.8,10.6 -10.6,10.6 H 58 18.2 c -2.4,0 -4.6,-0.8 -6.4,-2.2 -0.8,-0.5 -1.5,-1.2 -2.1,-2 z" id="path3121" inkscape:connector-curvature="0" style="fill:#fff" />
        </g>
        <path d="m 22.4,58.7 14.1,14.1 c 33.7,-33 88.2,-32.3 121.2,1.3 L 171.8,60 C 132.1,19 64.8,18.3 22.4,58.7 z" id="path3123" inkscape:connector-curvature="0" style="fill:#003d5e" />
        <path d="m 48,82.2 14.1,14.1 c 9.4,-8.8 22.2,-14.1 35.7,-14.1 13.5,0 25.6,5.4 35,14.8 L 146.9,82.9 C 120,55.3 75.6,55.3 48,82.2 z" id="path3125" inkscape:connector-curvature="0" style="fill:#003d5e" />
    </svg>
